<svg width="24" height="24" viewBox="0 0 24 24" fill="none" xmlns="http://www.w3.org/2000/svg">
<path d="M11.0239 7.32115V3.60705H9.0268C8.21612 3.60705 7.67555 3.6077 7.25368 3.64604C6.85245 3.68253 6.63271 3.74803 6.45959 3.83918C6.2865 3.93034 6.11213 4.07289 5.86664 4.37689C5.60849 4.6966 5.32091 5.13155 4.89047 5.7851L3.55396 7.81443C3.2677 8.24889 2.66474 8.38044 2.20791 8.10822C1.75116 7.83594 1.61286 7.2624 1.89905 6.82787L3.23556 4.79944C3.64657 4.17541 3.99047 3.65148 4.3185 3.24525C4.6591 2.82349 5.02536 2.47153 5.51393 2.21426C6.00264 1.95694 6.51105 1.84869 7.06779 1.79806C7.60383 1.74932 8.2527 1.75 9.0268 1.75H15.0287C15.8199 1.75 16.4828 1.74931 17.0296 1.79987C17.5975 1.85238 18.1153 1.96537 18.6111 2.2324C19.1069 2.49943 19.4747 2.86354 19.8142 3.29966C20.1411 3.71969 20.4815 4.26025 20.8886 4.90554L22.1107 6.84329C22.388 7.28298 22.2383 7.85342 21.7761 8.11729C21.3138 8.3811 20.7141 8.23864 20.4367 7.79902L19.2146 5.86126C18.7883 5.18546 18.5027 4.735 18.2451 4.4041C18.0004 4.08974 17.8246 3.94274 17.6493 3.84825C17.4738 3.75375 17.2505 3.68574 16.8409 3.64786C16.4101 3.60802 15.8572 3.60705 15.0287 3.60705H12.9762V7.32115C12.9762 7.83396 12.5392 8.24968 12.0001 8.24968C11.461 8.24968 11.0239 7.83396 11.0239 7.32115Z" fill="#023FA3"/>
<path d="M21.5 6.75C21.9142 6.75 22.25 7.08579 22.25 7.5V13.5498C22.25 14.4568 22.2497 15.2711 22.2314 16H20.5V15.25C20.5 14.0074 19.4926 13 18.25 13C17.0073 13 16 14.0074 16 15.25V16H15.25C14.0073 16 13 17.0074 13 18.25C13 19.4926 14.0073 20.5 15.25 20.5H16V22.2305C15.2711 22.2488 14.4567 22.25 13.5498 22.25H10.4502C8.60942 22.25 7.15127 22.25 6.01074 22.0967C4.83854 21.939 3.88986 21.6067 3.1416 20.8584C2.39337 20.1101 2.06095 19.1615 1.90332 17.9893C1.74998 16.8487 1.74998 15.3906 1.75 13.5498V7.5C1.75 7.08587 2.0859 6.75013 2.5 6.75H21.5ZM10 9.75C9.58589 9.75013 9.25 10.0859 9.25 10.5C9.25 10.9141 9.58589 11.2499 10 11.25H14C14.4142 11.25 14.75 10.9142 14.75 10.5C14.75 10.0858 14.4142 9.75 14 9.75H10Z" fill="#023FA3"/>
<path d="M17.25 21.25V19.25H15.25C14.6977 19.25 14.25 18.8023 14.25 18.25C14.25 17.6977 14.6977 17.25 15.25 17.25H17.25V15.25C17.25 14.6977 17.6977 14.25 18.25 14.25C18.8022 14.25 19.25 14.6977 19.25 15.25V17.25H21.25C21.8022 17.25 22.25 17.6977 22.25 18.25C22.25 18.8023 21.8022 19.25 21.25 19.25H19.25V21.25C19.25 21.8023 18.8022 22.25 18.25 22.25C17.6977 22.25 17.25 21.8023 17.25 21.25Z" fill="#023FA3"/>
</svg>
