<svg width="24" height="24" viewBox="0 0 24 24" fill="none" xmlns="http://www.w3.org/2000/svg">
<path d="M2.5 12C2.5 7.52166 2.5 5.28249 3.89124 3.89124C5.28249 2.5 7.52166 2.5 12 2.5C16.4783 2.5 18.7175 2.5 20.1088 3.89124C21.5 5.28249 21.5 7.52166 21.5 12C21.5 16.4783 21.5 18.7175 20.1088 20.1088C18.7175 21.5 16.4783 21.5 12 21.5C7.52166 21.5 5.28249 21.5 3.89124 20.1088C2.5 18.7175 2.5 16.4783 2.5 12Z" stroke="url(#paint0_linear_332_3688)" stroke-width="1.5"/>
<path d="M8 13.75C8 13.75 9.6 14.6625 10.4 16C10.4 16 12.8 10.75 16 9" stroke="url(#paint1_linear_332_3688)" stroke-width="1.5" stroke-linecap="round" stroke-linejoin="round"/>
<defs>
<linearGradient id="paint0_linear_332_3688" x1="2.5" y1="12.5938" x2="33.375" y2="12.5938" gradientUnits="userSpaceOnUse">
<stop stop-color="#2563EB"/>
<stop offset="1" stop-color="#0848B1"/>
</linearGradient>
<linearGradient id="paint1_linear_332_3688" x1="8" y1="12.7188" x2="21" y2="12.7188" gradientUnits="userSpaceOnUse">
<stop stop-color="#2563EB"/>
<stop offset="1" stop-color="#0848B1"/>
</linearGradient>
</defs>
</svg>
