<svg width="15" height="16" viewBox="0 0 15 16" fill="none" xmlns="http://www.w3.org/2000/svg">
<mask id="path-1-inside-1_796_8793" fill="white">
<path d="M13.4375 1.25H11.25V0.3125C11.25 0.22962 11.2171 0.150134 11.1585 0.0915292C11.0999 0.0329241 11.0204 0 10.9375 0C10.8546 0 10.7751 0.0329241 10.7165 0.0915292C10.6579 0.150134 10.625 0.22962 10.625 0.3125V1.25H3.75V0.3125C3.75 0.22962 3.71708 0.150134 3.65847 0.0915292C3.59987 0.0329241 3.52038 0 3.4375 0C3.35462 0 3.27513 0.0329241 3.21653 0.0915292C3.15792 0.150134 3.125 0.22962 3.125 0.3125V1.25H0.9375C0.68886 1.25 0.450403 1.34877 0.274587 1.52459C0.0987719 1.7004 0 1.93886 0 2.1875V14.6875C0 14.9361 0.0987719 15.1746 0.274587 15.3504C0.450403 15.5262 0.68886 15.625 0.9375 15.625H13.4375C13.6861 15.625 13.9246 15.5262 14.1004 15.3504C14.2762 15.1746 14.375 14.9361 14.375 14.6875V2.1875C14.375 1.93886 14.2762 1.7004 14.1004 1.52459C13.9246 1.34877 13.6861 1.25 13.4375 1.25ZM0.9375 1.875H3.125V2.8125C3.125 2.89538 3.15792 2.97487 3.21653 3.03347C3.27513 3.09208 3.35462 3.125 3.4375 3.125C3.52038 3.125 3.59987 3.09208 3.65847 3.03347C3.71708 2.97487 3.75 2.89538 3.75 2.8125V1.875H10.625V2.8125C10.625 2.89538 10.6579 2.97487 10.7165 3.03347C10.7751 3.09208 10.8546 3.125 10.9375 3.125C11.0204 3.125 11.0999 3.09208 11.1585 3.03347C11.2171 2.97487 11.25 2.89538 11.25 2.8125V1.875H13.4375C13.5204 1.875 13.5999 1.90792 13.6585 1.96653C13.7171 2.02513 13.75 2.10462 13.75 2.1875V5H0.625V2.1875C0.625 2.10462 0.657924 2.02513 0.716529 1.96653C0.775134 1.90792 0.85462 1.875 0.9375 1.875ZM13.4375 15H0.9375C0.85462 15 0.775134 14.9671 0.716529 14.9085C0.657924 14.8499 0.625 14.7704 0.625 14.6875V5.625H13.75V14.6875C13.75 14.7704 13.7171 14.8499 13.6585 14.9085C13.5999 14.9671 13.5204 15 13.4375 15ZM5.625 7.8125V12.8125C5.625 12.8954 5.59208 12.9749 5.53347 13.0335C5.47487 13.0921 5.39538 13.125 5.3125 13.125C5.22962 13.125 5.15013 13.0921 5.09153 13.0335C5.03292 12.9749 5 12.8954 5 12.8125V8.31797L4.20234 8.71719C4.12817 8.75428 4.04229 8.76038 3.96362 8.73415C3.88494 8.70793 3.8199 8.65152 3.78281 8.57734C3.74572 8.50317 3.73962 8.41729 3.76585 8.33862C3.79207 8.25994 3.84848 8.1949 3.92266 8.15781L5.17266 7.53281C5.22032 7.50896 5.27329 7.4977 5.32653 7.50009C5.37977 7.50248 5.43151 7.51845 5.47684 7.54648C5.52217 7.57451 5.55958 7.61366 5.58551 7.66022C5.61145 7.70679 5.62504 7.7592 5.625 7.8125ZM10.3125 10L8.4375 12.5H10.3125C10.3954 12.5 10.4749 12.5329 10.5335 12.5915C10.5921 12.6501 10.625 12.7296 10.625 12.8125C10.625 12.8954 10.5921 12.9749 10.5335 13.0335C10.4749 13.0921 10.3954 13.125 10.3125 13.125H7.8125C7.75447 13.125 7.69758 13.1088 7.64821 13.0783C7.59884 13.0478 7.55895 13.0042 7.53299 12.9523C7.50704 12.9003 7.49605 12.8422 7.50126 12.7844C7.50647 12.7266 7.52768 12.6714 7.5625 12.625L9.81094 9.62734C9.9343 9.46495 10.0007 9.26644 10 9.0625C10.0002 8.85593 9.93223 8.65507 9.80656 8.49113C9.6809 8.32718 9.5046 8.20933 9.30507 8.15588C9.10553 8.10243 8.89393 8.11638 8.70314 8.19557C8.51235 8.27475 8.35305 8.41472 8.25 8.59375C8.20676 8.66177 8.13891 8.71045 8.06062 8.72963C7.98234 8.7488 7.89967 8.73699 7.82989 8.69665C7.76011 8.65632 7.70861 8.59058 7.68615 8.51317C7.66369 8.43576 7.67201 8.35267 7.70937 8.28125C7.88136 7.98339 8.14683 7.7506 8.4646 7.61899C8.78237 7.48738 9.13468 7.46429 9.46691 7.55331C9.79914 7.64233 10.0927 7.83849 10.3021 8.11135C10.5115 8.38422 10.625 8.71855 10.625 9.0625C10.6261 9.40076 10.5164 9.73007 10.3125 10Z"/>
</mask>
<path d="M13.4375 1.25H11.25V0.3125C11.25 0.22962 11.2171 0.150134 11.1585 0.0915292C11.0999 0.0329241 11.0204 0 10.9375 0C10.8546 0 10.7751 0.0329241 10.7165 0.0915292C10.6579 0.150134 10.625 0.22962 10.625 0.3125V1.25H3.75V0.3125C3.75 0.22962 3.71708 0.150134 3.65847 0.0915292C3.59987 0.0329241 3.52038 0 3.4375 0C3.35462 0 3.27513 0.0329241 3.21653 0.0915292C3.15792 0.150134 3.125 0.22962 3.125 0.3125V1.25H0.9375C0.68886 1.25 0.450403 1.34877 0.274587 1.52459C0.0987719 1.7004 0 1.93886 0 2.1875V14.6875C0 14.9361 0.0987719 15.1746 0.274587 15.3504C0.450403 15.5262 0.68886 15.625 0.9375 15.625H13.4375C13.6861 15.625 13.9246 15.5262 14.1004 15.3504C14.2762 15.1746 14.375 14.9361 14.375 14.6875V2.1875C14.375 1.93886 14.2762 1.7004 14.1004 1.52459C13.9246 1.34877 13.6861 1.25 13.4375 1.25ZM0.9375 1.875H3.125V2.8125C3.125 2.89538 3.15792 2.97487 3.21653 3.03347C3.27513 3.09208 3.35462 3.125 3.4375 3.125C3.52038 3.125 3.59987 3.09208 3.65847 3.03347C3.71708 2.97487 3.75 2.89538 3.75 2.8125V1.875H10.625V2.8125C10.625 2.89538 10.6579 2.97487 10.7165 3.03347C10.7751 3.09208 10.8546 3.125 10.9375 3.125C11.0204 3.125 11.0999 3.09208 11.1585 3.03347C11.2171 2.97487 11.25 2.89538 11.25 2.8125V1.875H13.4375C13.5204 1.875 13.5999 1.90792 13.6585 1.96653C13.7171 2.02513 13.75 2.10462 13.75 2.1875V5H0.625V2.1875C0.625 2.10462 0.657924 2.02513 0.716529 1.96653C0.775134 1.90792 0.85462 1.875 0.9375 1.875ZM13.4375 15H0.9375C0.85462 15 0.775134 14.9671 0.716529 14.9085C0.657924 14.8499 0.625 14.7704 0.625 14.6875V5.625H13.75V14.6875C13.75 14.7704 13.7171 14.8499 13.6585 14.9085C13.5999 14.9671 13.5204 15 13.4375 15ZM5.625 7.8125V12.8125C5.625 12.8954 5.59208 12.9749 5.53347 13.0335C5.47487 13.0921 5.39538 13.125 5.3125 13.125C5.22962 13.125 5.15013 13.0921 5.09153 13.0335C5.03292 12.9749 5 12.8954 5 12.8125V8.31797L4.20234 8.71719C4.12817 8.75428 4.04229 8.76038 3.96362 8.73415C3.88494 8.70793 3.8199 8.65152 3.78281 8.57734C3.74572 8.50317 3.73962 8.41729 3.76585 8.33862C3.79207 8.25994 3.84848 8.1949 3.92266 8.15781L5.17266 7.53281C5.22032 7.50896 5.27329 7.4977 5.32653 7.50009C5.37977 7.50248 5.43151 7.51845 5.47684 7.54648C5.52217 7.57451 5.55958 7.61366 5.58551 7.66022C5.61145 7.70679 5.62504 7.7592 5.625 7.8125ZM10.3125 10L8.4375 12.5H10.3125C10.3954 12.5 10.4749 12.5329 10.5335 12.5915C10.5921 12.6501 10.625 12.7296 10.625 12.8125C10.625 12.8954 10.5921 12.9749 10.5335 13.0335C10.4749 13.0921 10.3954 13.125 10.3125 13.125H7.8125C7.75447 13.125 7.69758 13.1088 7.64821 13.0783C7.59884 13.0478 7.55895 13.0042 7.53299 12.9523C7.50704 12.9003 7.49605 12.8422 7.50126 12.7844C7.50647 12.7266 7.52768 12.6714 7.5625 12.625L9.81094 9.62734C9.9343 9.46495 10.0007 9.26644 10 9.0625C10.0002 8.85593 9.93223 8.65507 9.80656 8.49113C9.6809 8.32718 9.5046 8.20933 9.30507 8.15588C9.10553 8.10243 8.89393 8.11638 8.70314 8.19557C8.51235 8.27475 8.35305 8.41472 8.25 8.59375C8.20676 8.66177 8.13891 8.71045 8.06062 8.72963C7.98234 8.7488 7.89967 8.73699 7.82989 8.69665C7.76011 8.65632 7.70861 8.59058 7.68615 8.51317C7.66369 8.43576 7.67201 8.35267 7.70937 8.28125C7.88136 7.98339 8.14683 7.7506 8.4646 7.61899C8.78237 7.48738 9.13468 7.46429 9.46691 7.55331C9.79914 7.64233 10.0927 7.83849 10.3021 8.11135C10.5115 8.38422 10.625 8.71855 10.625 9.0625C10.6261 9.40076 10.5164 9.73007 10.3125 10Z" fill="white"/>
<path d="M11.25 1.25H10.25V2.25H11.25V1.25ZM10.625 1.25V2.25H11.625V1.25H10.625ZM3.75 1.25H2.75V2.25H3.75V1.25ZM3.125 1.25V2.25H4.125V1.25H3.125ZM3.125 1.875H4.125V0.875H3.125V1.875ZM3.75 1.875V0.875H2.75V1.875H3.75ZM10.625 1.875H11.625V0.875H10.625V1.875ZM11.25 1.875V0.875H10.25V1.875H11.25ZM13.75 5V6H14.75V5H13.75ZM0.625 5H-0.375V6H0.625V5ZM0.625 5.625V4.625H-0.375V5.625H0.625ZM13.75 5.625H14.75V4.625H13.75V5.625ZM5.625 7.8125L4.625 7.81178V7.8125H5.625ZM5 8.31797H6V6.69923L4.55244 7.42372L5 8.31797ZM4.20234 8.71719L4.64956 9.61162L4.64991 9.61144L4.20234 8.71719ZM5.17266 7.53281L5.61987 8.42724L5.62016 8.4271L5.17266 7.53281ZM10.3125 10L9.51452 9.3973L9.5125 9.4L10.3125 10ZM8.4375 12.5L7.6375 11.9L6.4375 13.5H8.4375V12.5ZM7.5625 12.625L6.76253 12.025L6.7625 12.025L7.5625 12.625ZM9.81094 9.62734L9.01463 9.02242L9.01096 9.02731L9.81094 9.62734ZM10 9.0625L8.99999 9.06139L9.00001 9.06617L10 9.0625ZM8.25 8.59375L9.09392 9.13023L9.10571 9.11168L9.11667 9.09264L8.25 8.59375ZM7.70937 8.28125L6.84337 7.78121L6.83295 7.79926L6.82329 7.81773L7.70937 8.28125ZM10.625 9.0625L9.62499 9.06254L9.62501 9.06587L10.625 9.0625ZM13.4375 1.25V0.25H11.25V1.25V2.25H13.4375V1.25ZM11.25 1.25H12.25V0.3125H11.25H10.25V1.25H11.25ZM11.25 0.3125H12.25C12.25 -0.0355949 12.1117 -0.369435 11.8656 -0.615578L11.1585 0.0915292L10.4514 0.798636C10.3224 0.669703 10.25 0.494835 10.25 0.3125H11.25ZM11.1585 0.0915292L11.8656 -0.615578C11.6194 -0.861719 11.2856 -1 10.9375 -1V0V1C10.7552 1 10.5803 0.927567 10.4514 0.798636L11.1585 0.0915292ZM10.9375 0V-1C10.5894 -1 10.2556 -0.861719 10.0094 -0.615578L10.7165 0.0915292L11.4236 0.798636C11.2947 0.927567 11.1198 1 10.9375 1V0ZM10.7165 0.0915292L10.0094 -0.615578C9.76328 -0.369435 9.625 -0.0355949 9.625 0.3125H10.625H11.625C11.625 0.494835 11.5526 0.669703 11.4236 0.798636L10.7165 0.0915292ZM10.625 0.3125H9.625V1.25H10.625H11.625V0.3125H10.625ZM10.625 1.25V0.25H3.75V1.25V2.25H10.625V1.25ZM3.75 1.25H4.75V0.3125H3.75H2.75V1.25H3.75ZM3.75 0.3125H4.75C4.75 -0.0355949 4.61172 -0.369435 4.36558 -0.615578L3.65847 0.0915292L2.95136 0.798636C2.82243 0.669703 2.75 0.494835 2.75 0.3125H3.75ZM3.65847 0.0915292L4.36558 -0.615578C4.11944 -0.861719 3.7856 -1 3.4375 -1V0V1C3.25516 1 3.0803 0.927567 2.95136 0.798636L3.65847 0.0915292ZM3.4375 0V-1C3.0894 -1 2.75556 -0.861719 2.50942 -0.615578L3.21653 0.0915292L3.92364 0.798636C3.7947 0.927567 3.61984 1 3.4375 1V0ZM3.21653 0.0915292L2.50942 -0.615578C2.26328 -0.369435 2.125 -0.0355949 2.125 0.3125H3.125H4.125C4.125 0.494835 4.05257 0.669703 3.92364 0.798636L3.21653 0.0915292ZM3.125 0.3125H2.125V1.25H3.125H4.125V0.3125H3.125ZM3.125 1.25V0.25H0.9375V1.25V2.25H3.125V1.25ZM0.9375 1.25V0.25C0.423643 0.25 -0.0691675 0.454128 -0.432519 0.817481L0.274587 1.52459L0.981694 2.23169C0.969973 2.24342 0.954076 2.25 0.9375 2.25V1.25ZM0.274587 1.52459L-0.432519 0.817481C-0.795872 1.18083 -1 1.67364 -1 2.1875H0H1C1 2.20408 0.993415 2.21997 0.981694 2.23169L0.274587 1.52459ZM0 2.1875H-1V14.6875H0H1V2.1875H0ZM0 14.6875H-1C-1 15.2014 -0.795871 15.6942 -0.432519 16.0575L0.274587 15.3504L0.981694 14.6433C0.993415 14.655 1 14.6709 1 14.6875H0ZM0.274587 15.3504L-0.432519 16.0575C-0.0691686 16.4209 0.423642 16.625 0.9375 16.625V15.625V14.625C0.954077 14.625 0.969974 14.6316 0.981694 14.6433L0.274587 15.3504ZM0.9375 15.625V16.625H13.4375V15.625V14.625H0.9375V15.625ZM13.4375 15.625V16.625C13.9514 16.625 14.4442 16.4209 14.8075 16.0575L14.1004 15.3504L13.3933 14.6433C13.405 14.6316 13.4209 14.625 13.4375 14.625V15.625ZM14.1004 15.3504L14.8075 16.0575C15.1709 15.6942 15.375 15.2014 15.375 14.6875H14.375H13.375C13.375 14.6709 13.3816 14.655 13.3933 14.6433L14.1004 15.3504ZM14.375 14.6875H15.375V2.1875H14.375H13.375V14.6875H14.375ZM14.375 2.1875H15.375C15.375 1.67364 15.1709 1.18083 14.8075 0.817481L14.1004 1.52459L13.3933 2.23169C13.3816 2.21997 13.375 2.20408 13.375 2.1875H14.375ZM14.1004 1.52459L14.8075 0.817481C14.4442 0.454129 13.9514 0.25 13.4375 0.25V1.25V2.25C13.4209 2.25 13.405 2.24341 13.3933 2.23169L14.1004 1.52459ZM0.9375 1.875V2.875H3.125V1.875V0.875H0.9375V1.875ZM3.125 1.875H2.125V2.8125H3.125H4.125V1.875H3.125ZM3.125 2.8125H2.125C2.125 3.16059 2.26328 3.49443 2.50942 3.74058L3.21653 3.03347L3.92364 2.32636C4.05257 2.4553 4.125 2.63017 4.125 2.8125H3.125ZM3.21653 3.03347L2.50942 3.74058C2.75556 3.98672 3.0894 4.125 3.4375 4.125V3.125V2.125C3.61984 2.125 3.7947 2.19743 3.92364 2.32636L3.21653 3.03347ZM3.4375 3.125V4.125C3.7856 4.125 4.11944 3.98672 4.36558 3.74058L3.65847 3.03347L2.95136 2.32636C3.0803 2.19743 3.25516 2.125 3.4375 2.125V3.125ZM3.65847 3.03347L4.36558 3.74058C4.61172 3.49443 4.75 3.16059 4.75 2.8125H3.75H2.75C2.75 2.63017 2.82243 2.4553 2.95136 2.32636L3.65847 3.03347ZM3.75 2.8125H4.75V1.875H3.75H2.75V2.8125H3.75ZM3.75 1.875V2.875H10.625V1.875V0.875H3.75V1.875ZM10.625 1.875H9.625V2.8125H10.625H11.625V1.875H10.625ZM10.625 2.8125H9.625C9.625 3.16059 9.76328 3.49443 10.0094 3.74058L10.7165 3.03347L11.4236 2.32636C11.5526 2.4553 11.625 2.63017 11.625 2.8125H10.625ZM10.7165 3.03347L10.0094 3.74058C10.2556 3.98672 10.5894 4.125 10.9375 4.125V3.125V2.125C11.1198 2.125 11.2947 2.19743 11.4236 2.32636L10.7165 3.03347ZM10.9375 3.125V4.125C11.2856 4.125 11.6194 3.98672 11.8656 3.74058L11.1585 3.03347L10.4514 2.32636C10.5803 2.19743 10.7552 2.125 10.9375 2.125V3.125ZM11.1585 3.03347L11.8656 3.74058C12.1117 3.49443 12.25 3.16059 12.25 2.8125H11.25H10.25C10.25 2.63017 10.3224 2.4553 10.4514 2.32636L11.1585 3.03347ZM11.25 2.8125H12.25V1.875H11.25H10.25V2.8125H11.25ZM11.25 1.875V2.875H13.4375V1.875V0.875H11.25V1.875ZM13.4375 1.875V2.875C13.2552 2.875 13.0803 2.80257 12.9514 2.67364L13.6585 1.96653L14.3656 1.25942C14.1194 1.01328 13.7856 0.875 13.4375 0.875V1.875ZM13.6585 1.96653L12.9514 2.67364C12.8224 2.5447 12.75 2.36983 12.75 2.1875H13.75H14.75C14.75 1.83941 14.6117 1.50557 14.3656 1.25942L13.6585 1.96653ZM13.75 2.1875H12.75V5H13.75H14.75V2.1875H13.75ZM13.75 5V4H0.625V5V6H13.75V5ZM0.625 5H1.625V2.1875H0.625H-0.375V5H0.625ZM0.625 2.1875H1.625C1.625 2.36984 1.55257 2.54471 1.42364 2.67364L0.716529 1.96653L0.00942241 1.25942C-0.236719 1.50556 -0.375 1.8394 -0.375 2.1875H0.625ZM0.716529 1.96653L1.42364 2.67364C1.29471 2.80257 1.11984 2.875 0.9375 2.875V1.875V0.875C0.589403 0.875 0.255563 1.01328 0.00942241 1.25942L0.716529 1.96653ZM13.4375 15V14H0.9375V15V16H13.4375V15ZM0.9375 15V14C1.11983 14 1.2947 14.0724 1.42364 14.2014L0.716529 14.9085L0.00942241 15.6156C0.255565 15.8617 0.589405 16 0.9375 16V15ZM0.716529 14.9085L1.42364 14.2014C1.55257 14.3303 1.625 14.5052 1.625 14.6875H0.625H-0.375C-0.375 15.0356 -0.236719 15.3694 0.00942241 15.6156L0.716529 14.9085ZM0.625 14.6875H1.625V5.625H0.625H-0.375V14.6875H0.625ZM0.625 5.625V6.625H13.75V5.625V4.625H0.625V5.625ZM13.75 5.625H12.75V14.6875H13.75H14.75V5.625H13.75ZM13.75 14.6875H12.75C12.75 14.5052 12.8224 14.3303 12.9514 14.2014L13.6585 14.9085L14.3656 15.6156C14.6117 15.3694 14.75 15.0356 14.75 14.6875H13.75ZM13.6585 14.9085L12.9514 14.2014C13.0803 14.0724 13.2552 14 13.4375 14V15V16C13.7856 16 14.1194 15.8617 14.3656 15.6156L13.6585 14.9085ZM5.625 7.8125H4.625V12.8125H5.625H6.625V7.8125H5.625ZM5.625 12.8125H4.625C4.625 12.6302 4.69743 12.4553 4.82636 12.3264L5.53347 13.0335L6.24058 13.7406C6.48672 13.4944 6.625 13.1606 6.625 12.8125H5.625ZM5.53347 13.0335L4.82636 12.3264C4.9553 12.1974 5.13017 12.125 5.3125 12.125V13.125V14.125C5.66059 14.125 5.99443 13.9867 6.24058 13.7406L5.53347 13.0335ZM5.3125 13.125V12.125C5.49483 12.125 5.6697 12.1974 5.79864 12.3264L5.09153 13.0335L4.38442 13.7406C4.63057 13.9867 4.96441 14.125 5.3125 14.125V13.125ZM5.09153 13.0335L5.79864 12.3264C5.92757 12.4553 6 12.6302 6 12.8125H5H4C4 13.1606 4.13828 13.4944 4.38442 13.7406L5.09153 13.0335ZM5 12.8125H6V8.31797H5H4V12.8125H5ZM5 8.31797L4.55244 7.42372L3.75478 7.82294L4.20234 8.71719L4.64991 9.61144L5.44756 9.21222L5 8.31797ZM4.20234 8.71719L3.75513 7.82276C3.91817 7.74124 4.10691 7.72783 4.27984 7.78547L3.96362 8.73415L3.64739 9.68284C3.97767 9.79293 4.33816 9.76731 4.64956 9.61162L4.20234 8.71719ZM3.96362 8.73415L4.27984 7.78547C4.45278 7.84311 4.59572 7.96709 4.67724 8.13013L3.78281 8.57734L2.88839 9.02456C3.04408 9.33595 3.3171 9.57274 3.64739 9.68284L3.96362 8.73415ZM3.78281 8.57734L4.67724 8.13013C4.75876 8.29317 4.77217 8.48191 4.71453 8.65484L3.76585 8.33862L2.81716 8.02239C2.70707 8.35267 2.73269 8.71316 2.88839 9.02456L3.78281 8.57734ZM3.76585 8.33862L4.71453 8.65484C4.65689 8.82777 4.53291 8.97072 4.36987 9.05224L3.92266 8.15781L3.47544 7.26339C3.16405 7.41908 2.92726 7.6921 2.81716 8.02239L3.76585 8.33862ZM3.92266 8.15781L4.36987 9.05224L5.61987 8.42724L5.17266 7.53281L4.72544 6.63839L3.47544 7.26339L3.92266 8.15781ZM5.17266 7.53281L5.62016 8.4271C5.5153 8.47957 5.39877 8.50435 5.28164 8.49908L5.32653 7.50009L5.37141 6.5011C5.1478 6.49105 4.92533 6.53836 4.72516 6.63853L5.17266 7.53281ZM5.32653 7.50009L5.28164 8.49908C5.16451 8.49382 5.05067 8.45869 4.95094 8.39703L5.47684 7.54648L6.00274 6.69593C5.81236 6.57822 5.59503 6.51115 5.37141 6.5011L5.32653 7.50009ZM5.47684 7.54648L4.95094 8.39703C4.85122 8.33536 4.76892 8.24922 4.71187 8.14679L5.58551 7.66022L6.45916 7.17366C6.35025 6.9781 6.19313 6.81365 6.00274 6.69593L5.47684 7.54648ZM5.58551 7.66022L4.71187 8.14679C4.65482 8.04436 4.62492 7.92904 4.625 7.81178L5.625 7.8125L6.625 7.81322C6.62516 7.58937 6.56807 7.36921 6.45916 7.17366L5.58551 7.66022ZM10.3125 10L9.5125 9.4L7.6375 11.9L8.4375 12.5L9.2375 13.1L11.1125 10.6L10.3125 10ZM8.4375 12.5V13.5H10.3125V12.5V11.5H8.4375V12.5ZM10.3125 12.5V13.5C10.1302 13.5 9.9553 13.4276 9.82636 13.2986L10.5335 12.5915L11.2406 11.8844C10.9944 11.6383 10.6606 11.5 10.3125 11.5V12.5ZM10.5335 12.5915L9.82636 13.2986C9.69743 13.1697 9.625 12.9948 9.625 12.8125H10.625H11.625C11.625 12.4644 11.4867 12.1306 11.2406 11.8844L10.5335 12.5915ZM10.625 12.8125H9.625C9.625 12.6302 9.69743 12.4553 9.82636 12.3264L10.5335 13.0335L11.2406 13.7406C11.4867 13.4944 11.625 13.1606 11.625 12.8125H10.625ZM10.5335 13.0335L9.82636 12.3264C9.9553 12.1974 10.1302 12.125 10.3125 12.125V13.125V14.125C10.6606 14.125 10.9944 13.9867 11.2406 13.7406L10.5335 13.0335ZM10.3125 13.125V12.125H7.8125V13.125V14.125H10.3125V13.125ZM7.8125 13.125V12.125C7.94018 12.125 8.06533 12.1606 8.17394 12.2277L7.64821 13.0783L7.12248 13.929C7.32982 14.0571 7.56875 14.125 7.8125 14.125V13.125ZM7.64821 13.0783L8.17394 12.2277C8.28255 12.2948 8.37032 12.3908 8.42742 12.505L7.53299 12.9523L6.63856 13.3995C6.74757 13.6175 6.91514 13.8008 7.12248 13.929L7.64821 13.0783ZM7.53299 12.9523L8.42742 12.505C8.48452 12.6192 8.50869 12.7471 8.49722 12.8742L7.50126 12.7844L6.5053 12.6946C6.48341 12.9374 6.52956 13.1815 6.63856 13.3995L7.53299 12.9523ZM7.50126 12.7844L8.49722 12.8742C8.48575 13.0014 8.4391 13.1229 8.3625 13.225L7.5625 12.625L6.7625 12.025C6.61626 12.22 6.52719 12.4519 6.5053 12.6946L7.50126 12.7844ZM7.5625 12.625L8.36248 13.225L10.6109 10.2274L9.81094 9.62734L9.01096 9.02731L6.76253 12.025L7.5625 12.625ZM9.81094 9.62734L10.6072 10.2323C10.8635 9.89489 11.0015 9.4825 11 9.05883L10 9.0625L9.00001 9.06617C8.99995 9.05038 9.00509 9.035 9.01465 9.02243L9.81094 9.62734ZM10 9.0625L11 9.06361C11.0005 8.63671 10.8599 8.22159 10.6002 7.88277L9.80656 8.49113L9.0129 9.09948C9.00452 9.08855 8.99999 9.07516 9 9.06139L10 9.0625ZM9.80656 8.49113L10.6002 7.88277C10.3405 7.54395 9.97617 7.30039 9.5638 7.18993L9.30507 8.15588L9.04633 9.12183C9.03303 9.11826 9.02127 9.11041 9.0129 9.09948L9.80656 8.49113ZM9.30507 8.15588L9.5638 7.18993C9.15143 7.07948 8.71412 7.10831 8.31982 7.27195L8.70314 8.19557L9.08646 9.11918C9.07374 9.12446 9.05963 9.12539 9.04633 9.12183L9.30507 8.15588ZM8.70314 8.19557L8.31982 7.27195C7.92552 7.43559 7.59631 7.72488 7.38333 8.09486L8.25 8.59375L9.11667 9.09264C9.1098 9.10457 9.09918 9.1139 9.08646 9.11918L8.70314 8.19557ZM8.25 8.59375L7.40608 8.05727C7.50122 7.90763 7.65049 7.80053 7.82271 7.75834L8.06062 8.72963L8.29853 9.70092C8.62733 9.62038 8.9123 9.41591 9.09392 9.13023L8.25 8.59375ZM8.06062 8.72963L7.82271 7.75834C7.99494 7.71615 8.17681 7.74215 8.33033 7.83088L7.82989 8.69665L7.32944 9.56242C7.62253 9.73183 7.96973 9.78145 8.29853 9.70092L8.06062 8.72963ZM7.82989 8.69665L8.33033 7.83088C8.48385 7.91962 8.59715 8.06425 8.64655 8.23455L7.68615 8.51317L6.72575 8.79179C6.82007 9.11691 7.03636 9.39301 7.32944 9.56242L7.82989 8.69665ZM7.68615 8.51317L8.64655 8.23455C8.69596 8.40484 8.67766 8.58765 8.59546 8.74477L7.70937 8.28125L6.82329 7.81773C6.66637 8.11769 6.63143 8.46668 6.72575 8.79179L7.68615 8.51317ZM7.70937 8.28125L8.57537 8.78129C8.63729 8.67407 8.73286 8.59026 8.84725 8.54288L8.4646 7.61899L8.08194 6.6951C7.5608 6.91095 7.12544 7.29272 6.84337 7.78121L7.70937 8.28125ZM8.4646 7.61899L8.84725 8.54288C8.96165 8.4955 9.08849 8.48719 9.20809 8.51924L9.46691 7.55331L9.72573 6.58739C9.18088 6.44139 8.60308 6.47925 8.08194 6.6951L8.4646 7.61899ZM9.46691 7.55331L9.20809 8.51924C9.32769 8.55128 9.43337 8.6219 9.50875 8.72013L10.3021 8.11135L11.0954 7.50258C10.752 7.05507 10.2706 6.73338 9.72573 6.58739L9.46691 7.55331ZM10.3021 8.11135L9.50875 8.72013C9.58413 8.81836 9.62499 8.93872 9.625 9.06254L10.625 9.0625L11.625 9.06246C11.625 8.49838 11.4388 7.95008 11.0954 7.50258L10.3021 8.11135ZM10.625 9.0625L9.62501 9.06587C9.62541 9.18546 9.5866 9.30188 9.51453 9.39731L10.3125 10L11.1105 10.6027C11.4461 10.1583 11.6269 9.61607 11.625 9.05913L10.625 9.0625Z" fill="white" mask="url(#path-1-inside-1_796_8793)"/>
</svg>
