<svg width="20" height="20" viewBox="0 0 20 20" fill="none" xmlns="http://www.w3.org/2000/svg">
<path d="M11.7284 3.23796C12.3494 2.56515 12.6599 2.22875 12.9898 2.03252C13.7859 1.55905 14.7662 1.54432 15.5756 1.99368C15.9111 2.17991 16.2311 2.50685 16.8712 3.16072C17.5113 3.81458 17.8313 4.14152 18.0136 4.48419C18.4535 5.31101 18.4391 6.31241 17.9756 7.12567C17.7835 7.46271 17.4542 7.77989 16.7956 8.41426L8.95918 15.962C7.71105 17.1641 7.08699 17.7652 6.30704 18.0699C5.52709 18.3745 4.66966 18.3521 2.9548 18.3072L2.72147 18.3011C2.19941 18.2875 1.93838 18.2807 1.78665 18.1085C1.63491 17.9363 1.65563 17.6704 1.69706 17.1386L1.71956 16.8498C1.83617 15.353 1.89447 14.6047 2.18675 13.9319C2.47903 13.2592 2.98319 12.713 3.99151 11.6205L11.7284 3.23796Z" stroke="#023FA3" stroke-width="1.25" stroke-linejoin="round"/>
<path d="M10.834 3.3335L16.6673 9.16683" stroke="#023FA3" stroke-width="1.25" stroke-linejoin="round"/>
<path d="M11.667 18.3335L18.3337 18.3335" stroke="#023FA3" stroke-width="1.25" stroke-linecap="round" stroke-linejoin="round"/>
</svg>
