<svg width="63" height="32" viewBox="0 0 63 32" fill="none" xmlns="http://www.w3.org/2000/svg">
<path d="M62.7229 15.7605C61.4025 12.8668 60.0414 9.99112 58.7229 7.09736C58.0933 5.71748 57.0433 5.05652 55.5081 5.06738C53.6007 5.08006 51.6933 5.071 49.7877 5.071H49.234C48.5766 12.0772 47.9247 19.031 47.271 26.0118H45.8099C45.8173 25.8489 45.8192 25.7275 45.8303 25.6062C46.0303 23.4241 46.234 21.2438 46.434 19.0618C46.9562 13.3847 47.4747 7.70581 48.0007 2.02875C48.1303 0.630762 47.5544 0.000578932 46.1118 0.000578932C38.4859 0.000578932 30.8581 0.000578932 23.2303 0.000578932C23.0081 0.000578932 22.7859 -0.00304125 22.5636 0.00782394C20.8359 0.0983672 19.5044 1.32795 19.3451 3.01024C19.0914 5.71748 18.8525 8.42472 18.6099 11.132C18.2081 15.6193 17.8136 20.1084 17.4044 24.5976C17.2303 26.4917 18.5803 28.0962 20.5229 28.2374C20.8081 28.2573 20.9303 28.3515 21.0322 28.605C21.7951 30.51 23.4896 31.6726 25.4877 31.6853C27.4951 31.6998 29.1896 30.5408 29.9859 28.596C30.0896 28.3424 30.2118 28.2428 30.5025 28.2428C36.4933 28.2519 42.484 28.2501 48.4729 28.2428C48.7784 28.2428 48.9136 28.3442 49.021 28.6159C49.7822 30.5137 51.4933 31.6817 53.4877 31.6889C55.4673 31.6962 57.2025 30.5173 57.9618 28.6267C58.0692 28.3605 58.2007 28.2537 58.4933 28.2139C60.5673 27.935 62.0525 26.4302 62.2488 24.4002C62.4896 21.8776 62.7136 19.3551 62.9136 16.8326C62.9414 16.4813 62.8655 16.0847 62.7173 15.7605H62.7229ZM25.4673 29.4688C24.0821 29.4471 22.9747 28.3298 22.9933 26.9734C23.0118 25.6352 24.1784 24.5306 25.5525 24.5505C26.9192 24.5704 28.0507 25.7131 28.0303 27.0549C28.0081 28.3968 26.847 29.4923 25.4655 29.4688H25.4673ZM30.1544 24.4563L24.7784 7.76376L23.3896 24.4563H20.5155C19.8562 24.4563 19.3414 23.904 19.4025 23.263L21.2266 3.67845C21.297 2.93056 21.9396 2.35652 22.7081 2.35652H26.497L30.8433 15.804L32.2155 2.35652H36.1044L33.5877 24.4563H30.1562H30.1544ZM44.6099 20.9106L44.3044 23.2847C44.2173 23.9547 43.6359 24.4563 42.9451 24.4563H34.4988L37.1284 2.35652H44.8766C45.6099 2.35652 46.1766 2.98489 46.0859 3.69475L45.7988 5.93479L40.1303 6.09233L38.321 20.9106H44.6099ZM53.4433 29.4742C52.0562 29.4434 50.9581 28.3189 50.9877 26.9644C51.0192 25.6098 52.1784 24.5161 53.5488 24.5523C54.9581 24.5885 56.0451 25.7221 56.0044 27.1129C55.9655 28.433 54.8007 29.5068 53.4433 29.476V29.4742ZM49.7081 15.5324C49.7081 15.3259 49.6951 15.1285 49.7118 14.9366C49.8636 12.9845 50.034 11.036 50.171 9.08569C50.1988 8.69636 50.2988 8.55692 50.7266 8.56416C52.347 8.59132 53.9655 8.56959 55.5858 8.58589C55.747 8.58589 55.9896 8.70903 56.0507 8.83941C57.0599 10.9817 58.047 13.1366 59.0377 15.2861C59.0673 15.3513 59.0766 15.4273 59.1044 15.5324H49.7081Z" fill="#023FA3"/>
<path d="M16.7932 15.8601C16.721 16.6732 16.6618 17.4265 16.5729 18.1781C16.5636 18.2505 16.3729 18.3483 16.2599 18.3555C15.9118 18.3791 15.5618 18.3664 15.2118 18.3664C10.6358 18.3664 6.05806 18.3664 1.48213 18.3664C0.643245 18.3664 0.093245 17.9517 0.00991172 17.2726C-0.0734216 16.6026 0.376578 16.005 1.06362 15.8873C1.23399 15.8583 1.41176 15.862 1.58584 15.862C6.4488 15.862 11.3099 15.862 16.1729 15.862C16.3599 15.862 16.5451 15.862 16.7932 15.862V15.8601Z" fill="#FDC802"/>
<path d="M17.2395 10.8839C17.1618 11.7567 17.0914 12.5535 17.0173 13.3901C16.7747 13.3901 16.5877 13.3901 16.4007 13.3901C12.1136 13.3901 7.82659 13.3901 3.5414 13.3901C3.30436 13.3901 3.06177 13.3847 2.83399 13.3322C2.22473 13.1945 1.83399 12.6603 1.87473 12.0609C1.91918 11.429 2.38214 10.9545 3.02103 10.8929C3.13214 10.8821 3.24325 10.8857 3.35436 10.8857C7.80066 10.8857 12.2451 10.8857 16.6914 10.8857C16.847 10.8857 17.0044 10.8857 17.2414 10.8857L17.2395 10.8839Z" fill="#FDC802"/>
<path d="M17.6877 5.90038C17.6099 6.77141 17.5414 7.55552 17.4692 8.36316C17.3192 8.37765 17.1951 8.40119 17.0729 8.40119C13.8988 8.40119 10.7229 8.40843 7.54883 8.38851C7.2192 8.3867 6.85068 8.28892 6.5692 8.12413C6.13587 7.87061 5.9692 7.27845 6.12476 6.79676C6.28031 6.31507 6.62105 6.00722 7.14142 5.92755C7.34327 5.89676 7.55253 5.90038 7.75809 5.90038C10.8544 5.90038 13.9488 5.90038 17.0451 5.90038C17.2322 5.90038 17.4211 5.90038 17.6896 5.90038H17.6877Z" fill="#FDC802"/>
<path d="M16.3377 20.9342C16.271 21.6513 16.2173 22.363 16.1303 23.071C16.1173 23.1706 15.9451 23.33 15.8451 23.33C14.2081 23.3408 12.571 23.3517 10.9358 23.3137C10.271 23.2974 9.81732 22.7378 9.81732 22.0859C9.81732 21.4394 10.2914 20.8781 10.947 20.869C12.6932 20.8436 14.4414 20.8636 16.1895 20.8672C16.2173 20.8672 16.2451 20.8907 16.3377 20.936V20.9342Z" fill="#FDC802"/>
</svg>
