<svg width="24" height="24" viewBox="0 0 24 24" fill="none" xmlns="http://www.w3.org/2000/svg">
<path d="M12.7393 4.125C13.5128 4.12499 14.1509 4.12548 14.6787 4.18066C15.2344 4.23878 15.7228 4.3622 16.1885 4.64063C16.6495 4.9163 17.0049 5.29337 17.3496 5.76465C17.6826 6.21997 18.0563 6.83945 18.4971 7.56934C19.0928 8.55573 19.7787 9.303 20.6289 9.91895C21.4841 10.538 22.1026 10.9849 22.4424 11.7168C22.6133 12.085 22.6857 12.4639 22.7197 12.8838C22.7387 13.1185 22.7461 13.4074 22.749 13.7243C22.7508 13.9124 22.7517 14.0065 22.693 14.0658C22.6343 14.125 22.5396 14.125 22.3503 14.125H21.752C21.3377 14.125 21.002 14.4608 21.002 14.875C21.002 15.2892 21.3377 15.625 21.752 15.625H22.3278C22.5235 15.625 22.6214 15.625 22.6807 15.6883C22.74 15.7516 22.7337 15.8467 22.7213 16.037C22.714 16.148 22.7049 16.2538 22.6934 16.3545C22.6322 16.8871 22.4976 17.3864 22.1475 17.8047C21.8946 18.0772 21.5853 18.2423 21.249 18.3496C21.0241 18.4214 20.9114 18.4563 20.8291 18.3955C20.7471 18.3346 20.7487 18.1964 20.752 17.9199C20.7521 17.905 20.752 17.89 20.752 17.875C20.752 15.8039 19.073 14.125 17.002 14.125C14.9309 14.1251 13.252 15.804 13.252 17.875V18.1387C13.249 18.3499 13.2329 18.4697 13.167 18.5361C13.079 18.6246 12.9169 18.625 12.5928 18.625L11.4111 18.625C11.087 18.625 10.9249 18.6246 10.8369 18.5361C10.7711 18.4697 10.7549 18.3498 10.752 18.1387V17.875C10.752 15.8039 9.07302 14.125 7.00195 14.125C4.93094 14.1251 3.25195 15.804 3.25195 17.875C3.25195 18.1684 3.25208 18.3154 3.16504 18.375C3.15998 18.3785 3.15477 18.3818 3.14941 18.3848C3.05725 18.436 2.94411 18.3791 2.71875 18.2666C2.2192 18.0172 1.7063 17.6451 1.46094 17.2344C1.2817 16.9342 1.25196 16.6183 1.25195 16.3398L1.25195 11.75C1.25195 11.3358 1.58779 11.0001 2.00195 11L10.5137 11C10.7963 11 10.9375 10.9999 11.0254 10.9121C11.1132 10.8243 11.1133 10.683 11.1133 10.4004L11.1133 4.875C11.1133 4.70582 11.2257 4.44338 11.3545 4.32422C11.4927 4.19667 11.6745 4.12503 11.8633 4.125H12.7393ZM13.3555 6C13.3128 5.99978 13.2717 6.00688 13.2344 6.02051C13.192 6.03601 13.1708 6.04422 13.1348 6.11426C13.0986 6.18466 13.1135 6.2279 13.1436 6.31348L13.749 8.03906C14.049 8.8941 14.2578 9.48614 14.4639 9.92676C14.666 10.3588 14.8314 10.5683 15.001 10.6992C15.1567 10.8194 15.3493 10.9002 15.7246 10.9473C16.1319 10.9983 16.6646 11 17.4814 11H18.2803C18.7913 11 19.0475 11.0001 19.1035 10.8799C19.1591 10.7593 18.9729 10.5832 18.6006 10.2324C18.0581 9.72131 17.5964 9.15008 17.1582 8.47949C16.6781 7.74482 16.352 7.24691 16.0615 6.87988C15.7811 6.52553 15.5834 6.35828 15.3945 6.25391C15.2121 6.15308 14.9872 6.08282 14.5752 6.04297C14.2558 6.0121 13.8707 6.00263 13.3555 6Z" fill="#023FA3"/>
<circle cx="17.002" cy="17.875" r="2.5" fill="#023FA3"/>
<circle cx="7.00195" cy="17.875" r="2.5" fill="#023FA3"/>
</svg>
