<svg width="24" height="24" viewBox="0 0 24 24" fill="none" xmlns="http://www.w3.org/2000/svg">
<path d="M11.9982 2.00009C8.99043 2.00009 7.04018 4.01908 4.73371 4.75499C3.79589 5.05422 3.32697 5.20383 3.1372 5.41474C2.94743 5.62565 2.89186 5.93384 2.78072 6.55023C1.59143 13.1461 4.1909 19.2441 10.3903 21.6176C11.0564 21.8726 11.3894 22.0001 12.0015 22.0001C12.6135 22.0001 12.9466 21.8726 13.6126 21.6176C19.8116 19.244 22.4086 13.1461 21.219 6.55022C21.1078 5.93373 21.0522 5.62549 20.8624 5.41458C20.6726 5.20367 20.2037 5.05414 19.2659 4.75508C16.9585 4.01924 15.0061 2.00009 11.9982 2.00009Z" stroke="#6A6A6A" stroke-width="1.5" stroke-linecap="round" stroke-linejoin="round"/>
<path d="M12 7.00009L12 9.00009" stroke="#6A6A6A" stroke-width="1.5" stroke-linecap="round"/>
</svg>
